<?xml version="1.0" encoding="utf-8"?>
<!-- Generator: Adobe Illustrator 19.1.1, SVG Export Plug-In . SVG Version: 6.00 Build 0)  -->
<svg version="1.1" id="Layer_1" xmlns="http://www.w3.org/2000/svg" xmlns:xlink="http://www.w3.org/1999/xlink" x="0px" y="0px"
	 viewBox="0 0 100 100" style="enable-background:new 0 0 100 100;" xml:space="preserve">
<style type="text/css">
	.st0{opacity:0.5;}
	.st1{fill:none;}
	.st2{fill:#FFFFFF;}
</style>
<g class="st0">
	<polygon class="st1" points="57,19 35.9,40.1 28.2,47.8 35.9,55.4 57,76.5 64.6,68.8 43.5,47.8 64.6,26.7 	"/>
	<path class="st2" d="M51.4,4.3C27.4,4.3,8,23.8,8,47.8c0,24,19.4,43.4,43.4,43.4s43.4-19.4,43.4-43.4C94.8,23.8,75.4,4.3,51.4,4.3z
		 M64.6,68.8L57,76.5L35.9,55.4l-7.7-7.7l7.7-7.7L57,19l7.7,7.7L43.5,47.8L64.6,68.8z"/>
</g>
</svg>
