<?xml version="1.0" encoding="utf-8"?>
<!-- Generator: Adobe Illustrator 19.1.1, SVG Export Plug-In . SVG Version: 6.00 Build 0)  -->
<svg version="1.1" id="Layer_1" xmlns="http://www.w3.org/2000/svg" xmlns:xlink="http://www.w3.org/1999/xlink" x="0px" y="0px"
	 viewBox="0 0 100 100" style="enable-background:new 0 0 100 100;" xml:space="preserve">
<style type="text/css">
	.st0{fill:#2987C0;stroke:#FFFFFF;stroke-width:4;stroke-miterlimit:10;}
</style>
<path class="st0" d="M59.5,84.9l-31.1,4.9c-3.3,0.5-6.3-1.7-6.9-5l-8-50.9c-0.5-3.3,1.7-6.3,5-6.9l31.1-4.9c3.3-0.5,6.3,1.7,6.9,5
	l8,50.9C65,81.3,62.8,84.4,59.5,84.9z"/>
<path class="st0" d="M72.3,76.8l-31-5.5c-3.2-0.6-5.4-3.7-4.9-7l9-50.7c0.6-3.2,3.7-5.4,7-4.9l31,5.5c3.2,0.6,5.4,3.7,4.9,7l-9,50.7
	C78.7,75.2,75.5,77.3,72.3,76.8z"/>
</svg>
