<?xml version="1.0" encoding="utf-8"?>
<!-- Generator: Adobe Illustrator 19.1.1, SVG Export Plug-In . SVG Version: 6.00 Build 0)  -->
<svg version="1.1" id="Layer_1" xmlns="http://www.w3.org/2000/svg" xmlns:xlink="http://www.w3.org/1999/xlink" x="0px" y="0px"
	 viewBox="0 0 100 100" style="enable-background:new 0 0 100 100;" xml:space="preserve">
<style type="text/css">
	.st0{fill:none;stroke:#565656;stroke-miterlimit:10;}
	.st1{fill:none;stroke:#565656;stroke-linecap:round;stroke-linejoin:round;}
</style>
<rect x="12.5" y="15" class="st0" width="75" height="14"/>
<g>
	<rect x="12.5" y="32" class="st0" width="75" height="56.5"/>
	<path class="st1" d="M48.3,66c0-1.7-0.5-3.1-1.4-4.3s-2.2-2-3.8-2.3c2.7-1.5,4-3.4,4-5.9c0-1.7-0.7-3.3-2-4.6
		c-1.6-1.7-3.7-2.5-6.3-2.5c-1.5,0-2.9,0.3-4.2,0.9c-1.2,0.6-2.2,1.4-2.9,2.4c-0.7,1-1.2,2.4-1.6,4l4.9,0.8c0.1-1.2,0.5-2.1,1.2-2.8
		s1.4-1,2.3-1c0.9,0,1.7,0.3,2.2,0.8s0.8,1.3,0.8,2.2c0,1.1-0.4,2-1.1,2.7c-0.8,0.7-1.9,1-3.3,0.9l-0.6,4.4c1-0.3,1.8-0.4,2.5-0.4
		c1,0,1.9,0.4,2.6,1.2s1.1,1.9,1.1,3.2c0,1.4-0.4,2.6-1.1,3.4s-1.7,1.3-2.8,1.3c-1,0-1.9-0.3-2.6-1s-1.2-1.7-1.3-3L29.8,67
		c0.3,2.3,1.2,4.3,2.9,5.7c1.7,1.5,3.8,2.2,6.3,2.2c2.7,0,4.9-0.9,6.7-2.6S48.3,68.5,48.3,66z"/>
	<path class="st1" d="M65.3,46.4H61c-0.6,1.7-1.7,3.2-3.4,4.5c-1.6,1.3-3.2,2.1-4.6,2.6v4.9c2.7-0.9,5-2.2,6.9-4.1v20.2h5.4V46.4z"
		/>
</g>
</svg>
