<?xml version="1.0" encoding="utf-8"?>
<!-- Generator: Adobe Illustrator 19.1.1, SVG Export Plug-In . SVG Version: 6.00 Build 0)  -->
<svg version="1.1" id="Layer_1" xmlns="http://www.w3.org/2000/svg" xmlns:xlink="http://www.w3.org/1999/xlink" x="0px" y="0px"
	 viewBox="0 0 100 100" style="enable-background:new 0 0 100 100;" xml:space="preserve">
<style type="text/css">
	.st0{fill:none;stroke:#565656;stroke-miterlimit:10;}
</style>
<path class="st0" d="M76,12.2H23c-6.6,0-12,5.4-12,12v53c0,6.6,5.4,12,12,12h53c6.6,0,12-5.4,12-12v-53C88,17.6,82.6,12.2,76,12.2z
	 M68.3,36.6c-0.5,0-0.9,0.2-1.3,0.4c-0.3,0.2-0.6,0.6-0.9,1.1c-0.1,0.2-0.5,1.2-1.2,3L56.6,63h-0.8l-6.6-17.1L42.1,63h-0.7
	l-8.7-21.6c-0.9-2.2-1.5-3.5-1.9-3.9c-0.4-0.5-0.9-0.7-1.8-0.8V36h11.5v0.7c-0.9,0-1.5,0.2-1.8,0.4c-0.3,0.3-0.5,0.6-0.5,0.9
	c0,0.5,0.3,1.5,1,3.1L44.4,54l4.2-10l-1.1-2.8c-0.6-1.5-1.1-2.6-1.4-3.1c-0.3-0.5-0.7-0.9-1.1-1.1c-0.4-0.2-1-0.3-1.9-0.3V36h12.8
	v0.7c-0.9,0-1.5,0.1-1.9,0.2c-0.3,0.1-0.5,0.2-0.6,0.5s-0.2,0.5-0.2,0.7c0,0.3,0.3,1.2,0.9,2.8l4.8,12.5L63.1,42
	c0.5-1.2,0.7-2,0.8-2.4s0.2-0.8,0.2-1.2c0-0.5-0.2-1-0.5-1.3c-0.4-0.3-1.1-0.5-2.1-0.5v-0.7h6.9L68.3,36.6L68.3,36.6z"/>
</svg>
