<?xml version="1.0" encoding="utf-8"?>
<!-- Generator: Adobe Illustrator 19.1.1, SVG Export Plug-In . SVG Version: 6.00 Build 0)  -->
<svg version="1.1" id="Layer_1" xmlns="http://www.w3.org/2000/svg" xmlns:xlink="http://www.w3.org/1999/xlink" x="0px" y="0px"
	 viewBox="0 0 100 100" style="enable-background:new 0 0 100 100;" xml:space="preserve">
<style type="text/css">
	.st0{fill:none;stroke:#565656;stroke-miterlimit:10;}
</style>
<g>
	<path class="st0" d="M36.4,64.3L43.7,23l-25.2,4c-3.3,0.6-5.5,3.6-5,6.9l8,50.9c0.6,3.3,3.6,5.5,6.9,5l31.1-4.9
		c3.3-0.5,5.5-3.6,5-6.9l-0.4-2.7l-22.8-4C38.1,70.7,35.9,67.6,36.4,64.3z"/>
	<path class="st0" d="M83.4,14.2l-31-5.5c-3.3-0.5-6.4,1.7-7,4.9L43.7,23l5.9-0.9c3.3-0.5,6.3,1.7,6.9,5l7.6,48.2l8.2,1.5
		c3.2,0.5,6.4-1.6,7-4.9l9-50.7C88.8,17.9,86.6,14.8,83.4,14.2z"/>
</g>
</svg>
