<?xml version="1.0" encoding="utf-8"?>
<!-- Generator: Adobe Illustrator 19.1.1, SVG Export Plug-In . SVG Version: 6.00 Build 0)  -->
<svg version="1.1" id="Layer_1" xmlns="http://www.w3.org/2000/svg" xmlns:xlink="http://www.w3.org/1999/xlink" x="0px" y="0px"
	 viewBox="23 -23 100 100" style="enable-background:new 23 -23 100 100;" xml:space="preserve">
<style type="text/css">
	.st0{fill:none;stroke:#565656;stroke-miterlimit:10;}
</style>
<g id="Icons_with_numbers">
	<g id="Group" transform="translate(-480.000000, -192.000000)">
		<path id="Rectangle_233" class="st0" d="M539.5,208v38.4l0,0c0,3.5-2.3,7.5-7.1,9.9c-6.7,3.5-13.8,1.8-16.4-2.2
			c-2.6-4-0.7-10.3,6-13.7c4.5-2.3,9.2-2.3,12.5-0.9V209v-19.7l49.2-9.8v4.9v14.8v42.3l0,0c0,3.5-2.3,7.5-7.1,9.9
			c-6.7,3.5-13.8,1.8-16.4-2.2c-2.6-4-0.7-10.3,6-13.7c4.5-2.3,9.2-2.3,12.5-0.9v-34.5L539.5,208z"/>
	</g>
</g>
</svg>
