<?xml version="1.0" encoding="utf-8"?>
<!-- Generator: Adobe Illustrator 19.1.1, SVG Export Plug-In . SVG Version: 6.00 Build 0)  -->
<svg version="1.1" id="Layer_1" xmlns="http://www.w3.org/2000/svg" xmlns:xlink="http://www.w3.org/1999/xlink" x="0px" y="0px"
	 viewBox="0 0 100 100" style="enable-background:new 0 0 100 100;" xml:space="preserve">
<style type="text/css">
	.st0{fill:none;stroke:#565656;stroke-miterlimit:10;}
</style>
<path class="st0" d="M50.4,8C26.5,8.2,10.3,24.8,17.5,50.4c6.4,22.5,14.8,42.4,32.9,42.4s28.1-19.5,32.9-42.4
	C88.4,25.2,73,7.8,50.4,8z M33.9,48c-3.1-1.6-5.2-3.1-6.5-6.5c-1.6-4.5-0.1-8.1,6.5-6.5c3.5,0.9,4.6,3.4,6.5,6.5
	C44.7,48.7,43,52.6,33.9,48z M72.2,41.5c-0.9,3.5-3.4,4.6-6.5,6.5c-7.1,4.3-11.2,2.7-6.5-6.5c1.6-3.1,3.1-5.2,6.5-6.5
	C70.2,33.3,73.8,34.8,72.2,41.5z"/>
</svg>
