<?xml version="1.0" encoding="utf-8"?>
<!-- Generator: Adobe Illustrator 19.1.1, SVG Export Plug-In . SVG Version: 6.00 Build 0)  -->
<svg version="1.1" id="Layer_1" xmlns="http://www.w3.org/2000/svg" xmlns:xlink="http://www.w3.org/1999/xlink" x="0px" y="0px"
	 viewBox="23 -23 100 100" style="enable-background:new 23 -23 100 100;" xml:space="preserve">
<style type="text/css">
	.st0{fill:none;stroke:#565656;stroke-miterlimit:10;}
</style>
<path class="st0" d="M103.5,37.6L46.9,7.2c-5.3-2.9-7.3-9.6-4.5-14.9l0,0l56.6,30.4C104.4,25.5,106.4,32.2,103.5,37.6L103.5,37.6z"
	/>
<path class="st0" d="M96.6,49.7L52.7,26.1c-5.3-2.9-7.3-9.6-4.5-14.9l0,0l43.9,23.6C97.5,37.7,99.5,44.4,96.6,49.7L96.6,49.7z"/>
<path class="st0" d="M90.2,61.7L62.1,46.7c-5.3-2.9-7.3-9.6-4.5-14.9l0,0l28.1,15.1C91,49.7,93.1,56.4,90.2,61.7L90.2,61.7z"/>
</svg>
