<?xml version="1.0" encoding="utf-8"?>
<!-- Generator: Adobe Illustrator 19.1.1, SVG Export Plug-In . SVG Version: 6.00 Build 0)  -->
<svg version="1.1" id="Layer_1" xmlns="http://www.w3.org/2000/svg" xmlns:xlink="http://www.w3.org/1999/xlink" x="0px" y="0px"
	 viewBox="0 0 100 100" style="enable-background:new 0 0 100 100;" xml:space="preserve">
<style type="text/css">
	.st0{fill:#2987C0;stroke:#FFFFFF;stroke-width:4;stroke-miterlimit:10;}
</style>
<path class="st0" d="M49.3,10C28.8,10.2,14.8,24.5,21,46.5C26.5,65.9,33.7,83,49.3,83s24.2-16.8,28.3-36.5
	C82.1,24.8,68.8,9.8,49.3,10z M35.1,44.4c-2.7-1.4-4.5-2.7-5.6-5.6c-1.4-3.9-0.1-7,5.6-5.6c3,0.8,4,2.9,5.6,5.6
	C44.4,45,43,48.4,35.1,44.4z M68.1,38.8c-0.8,3-2.9,4-5.6,5.6c-6.1,3.7-9.6,2.3-5.6-5.6c1.4-2.7,2.7-4.5,5.6-5.6
	C66.4,31.8,69.5,33.1,68.1,38.8z"/>
</svg>
